<svg width="120" height="120" viewBox="0 0 120 120" fill="none" xmlns="http://www.w3.org/2000/svg">
<g clip-path="url(#clip0_2_2)">
<path d="M88.3528 109.363C89.1812 110.798 88.6927 112.64 87.2182 113.396C77.5822 118.335 66.7704 120.582 55.9286 119.872C44.0872 119.095 32.7418 114.825 23.3271 107.601C13.9125 100.377 6.85149 90.5235 3.03701 79.2864C-0.777475 68.0493 -1.17411 55.9334 1.89727 44.4709C4.96864 33.0083 11.3701 22.714 20.2921 14.8896C29.2141 7.06524 40.2559 2.06225 52.0212 0.513309C63.7866 -1.03563 75.7471 0.93905 86.3901 6.18764C96.1347 10.9931 104.374 18.3455 110.25 27.4403C111.149 28.832 110.651 30.6716 109.216 31.5L62.4509 58.5C61.016 59.3284 60.5244 61.1632 61.3528 62.5981L88.3528 109.363Z" fill="url(#paint0_linear_2_2)"/>
<ellipse cx="71.2116" cy="24.5731" rx="8.67211" ry="8.6721" transform="rotate(-39.6152 71.2116 24.5731)" fill="black"/>
<ellipse cx="49.2107" cy="37.2753" rx="8.67211" ry="8.6721" transform="rotate(-39.6152 49.2107 37.2753)" fill="black"/>
</g>
<defs>
<linearGradient id="paint0_linear_2_2" x1="111.814" y1="30" x2="7.89129" y2="90" gradientUnits="userSpaceOnUse">
<stop stop-color="#FFC700"/>
<stop offset="1" stop-color="#FFA800"/>
</linearGradient>
<clipPath id="clip0_2_2">
<rect width="120" height="120" fill="white"/>
</clipPath>
</defs>
</svg>
