<svg width="120" height="120" viewBox="0 0 120 120" fill="none" xmlns="http://www.w3.org/2000/svg">
<g clip-path="url(#clip0_2_2)">
<path d="M100.158 19.6949C101.329 18.5233 101.334 16.6176 100.106 15.506C91.5536 7.76896 80.9342 2.6454 69.5103 0.782328C57.0975 -1.24202 44.3623 0.685407 33.1044 6.29224C21.8465 11.8991 12.6351 20.9018 6.77188 32.0283C0.908628 43.1548 -1.31002 55.8425 0.429453 68.2984C2.16892 80.7544 7.77855 92.3489 16.4657 101.443C25.1528 110.538 36.4781 116.673 48.8413 118.981C61.2046 121.289 73.9805 119.654 85.3639 114.306C95.8404 109.385 104.65 101.548 110.755 91.7642C111.632 90.3586 111.105 88.5271 109.658 87.7213L63.3251 61.9327C61.5844 60.9638 61.2541 58.5987 62.6628 57.19L100.158 19.6949Z" fill="url(#paint0_linear_2_2)"/>
<ellipse cx="62.3092" cy="26.1773" rx="9.76744" ry="9.76744" transform="rotate(-54.6152 62.3092 26.1773)" fill="black"/>
<ellipse cx="41.379" cy="45.7122" rx="9.76744" ry="9.76744" transform="rotate(-54.6152 41.379 45.7122)" fill="black"/>
</g>
<defs>
<linearGradient id="paint0_linear_2_2" x1="17.4264" y1="17.5736" x2="102.279" y2="102.426" gradientUnits="userSpaceOnUse">
<stop stop-color="#FFC700"/>
<stop offset="1" stop-color="#CA8500"/>
</linearGradient>
<clipPath id="clip0_2_2">
<rect width="120" height="120" fill="white"/>
</clipPath>
</defs>
</svg>
